HIERARCHY
ROOT pelvis
{
  OFFSET 0 100 0
  CHANNELS 6 Xposition Yposition Zposition Zrotation Xrotation Yrotation
  JOINT pelvis_right_femur
  {
    OFFSET -10.78128 -3.44521 -0.5502486
    CHANNELS 3 Zrotation Xrotation Yrotation
    JOINT right_femur_tibia
    {
      OFFSET -0.8047443 -44.0398 -0.1307829
      CHANNELS 3 Zrotation Xrotation Yrotation
      JOINT right_tibia_foot
      {
        OFFSET 3.006224 -47.83518 -5
        CHANNELS 3 Zrotation Xrotation Yrotation
        End Site
        {
          OFFSET 0 -5 15
        }
      }
    }
  }
  JOINT pelvis_left_femur
  {
    OFFSET 10.78128 -3.44521 -0.5502486
    CHANNELS 3 Zrotation Xrotation Yrotation
    JOINT left_femur_tibia
    {
      OFFSET 0.8047443 -44.0398 -0.1307829
      CHANNELS 3 Zrotation Xrotation Yrotation
      JOINT left_tibia_foot
      {
        OFFSET -4.370144 -48.10324 -4.275266
        CHANNELS 3 Zrotation Xrotation Yrotation
        End Site
        {
          OFFSET 0 -5 15
        }
      }
    }
  }
  JOINT pelvis_spine1
  {
    OFFSET 0 6.468898 -3.129235
    CHANNELS 3 Zrotation Xrotation Yrotation
    JOINT spine1
    {
      OFFSET 0 23.15396 4.99043
      CHANNELS 3 Zrotation Xrotation Yrotation
      JOINT spine2
      {
        OFFSET 0 20.79997 -5.064912
        CHANNELS 3 Zrotation Xrotation Yrotation
        JOINT neck
        {
          OFFSET 0 14.38658 9.616178
          CHANNELS 3 Zrotation Xrotation Yrotation
          End Site
          {
            OFFSET 0 20 0
          }
        }
      }
      JOINT right_manubrium
      {
        OFFSET -5.722621 16.35077 3.967754
        CHANNELS 3 Zrotation Xrotation Yrotation
        JOINT right_clavicle
        {
          OFFSET -13.16364 1.694482 -4.693211
          CHANNELS 3 Zrotation Xrotation Yrotation
          JOINT right_humerus
          {
            OFFSET -28.5034 -0.3100689 -2.792744
            CHANNELS 3 Zrotation Xrotation Yrotation
            JOINT right_radius
            {
              OFFSET -25.15693 0.02248979 -1.271978
              CHANNELS 3 Zrotation Xrotation Yrotation
              End Site
              {
                OFFSET -15 0 0
              }
            }
          }
        }
      }
      JOINT left_manubrium
      {
        OFFSET 5.722621 16.35077 3.967754
        CHANNELS 3 Zrotation Xrotation Yrotation
        JOINT left_clavicle
        {
          OFFSET 13.16364 1.694482 -4.693211
          CHANNELS 3 Zrotation Xrotation Yrotation
          JOINT left_humerus
          {
            OFFSET 29.39168 -1.063119 -2.237045
            CHANNELS 3 Zrotation Xrotation Yrotation
            JOINT left_radius
            {
              OFFSET 24.59957 -0.9528479 0.9047498
              CHANNELS 3 Zrotation Xrotation Yrotation
              End Site
              {
                OFFSET 15 -0 -0
              }
            }
          }
        }
      }
    }
  }
}
MOTION
Frames: 15
Frame Time: 0.0416666666667
1701.844 101.3609 1617.503 4.402239 0.5778314 90.27365 4.219472 13.41017 0.4874919 -0 7.417743 -0 -5.850083 -16.72173 -1.417392 1.352714 -25.7793 -4.183079 -0 27.05254 -0 -5.036813 -6.714713 19.67696 -1.535817 1.591168 6.564986 0.2252041 8.416252 -3.649102 1.148313 23.63692 5.273917 2.374081 -19.10602 6.096197 2.563702 -20.25099 11.57274 79.05648 32.49221 -4.596307 -0 0 17.93168 -22.09354 11.63278 14.24225 4.453729 -16.94694 -1.981343 -92.11344 23.58969 22.24698 0 0 -12.37017 1.842493 11.14022 11.11336
1707.431 99.99254 1617.002 3.769024 -0.2246448 89.88131 4.391798 15.77833 0.2858551 -0 8.476024 -0 -5.531572 -18.68293 -0.7533555 2.638931 -27.38692 -3.551544 -0 16.38666 -0 -5.106836 -6.095777 20.25036 -0.7913961 1.065651 6.440396 -0.02091311 8.27506 -3.53642 1.046818 23.29368 5.380773 2.268076 -18.995 6.158201 1.962271 -21.44421 11.23184 78.08174 31.35905 -2.694827 -0 0 20.22013 -23.23716 10.78697 15.30908 4.519783 -16.44224 -1.820787 -92.74401 23.14594 23.81813 0 0 -10.64884 1.675022 10.74955 11.4322
1713.484 98.59433 1616.337 3.278951 -0.6225401 89.29223 3.83115 17.96763 0.2762239 -0 10.7025 -0 -5.536627 -19.02273 -0.06771648 2.837765 -27.90589 -3.731113 -0 10.16926 -0 -5.130663 -5.546376 20.31155 -0.4804723 0.4680638 6.626563 -0.3355077 8.104226 -3.338069 1.082122 23.04975 5.537811 2.373786 -18.94553 6.278129 1.373592 -22.06774 10.73489 77.81644 30.85097 -1.644602 -0 0 21.50604 -24.16941 9.976688 16.01648 4.440896 -16.07146 -1.64808 -93.11249 22.90371 25.19615 0 0 -9.505562 1.444499 10.4212 12.16168
1720.074 97.46608 1615.505 3.039655 -0.2498904 88.58357 2.42207 19.98243 0.6355408 -0 14.26183 -0 -5.564714 -16.49011 0.4605602 1.533289 -27.30873 -4.786151 -0 9.06287 -0 -4.526777 -5.405947 20.26252 -1.013295 -0.1838023 7.118785 -0.6270685 8.077178 -3.06584 1.282563 22.84999 5.578759 2.64632 -19.06299 6.335741 0.9635047 -22.11213 10.22139 78.29304 30.81614 -1.520773 -0 0 21.70929 -24.66933 9.121982 16.38255 4.184541 -15.71553 -1.58326 -93.263 22.77438 26.21546 0 0 -8.730781 1.196935 9.790822 13.05277
1727.169 96.88856 1614.522 3.074607 0.7658958 87.98127 0.5301901 21.37378 1.475588 -0 19.99185 -0 -5.384914 -10.92688 0.6323693 -0.8952121 -25.64528 -6.304217 -0 11.835 -0 -3.277021 -5.756124 20.26562 -2.253617 -0.9081041 7.71361 -0.813153 8.437526 -2.882498 1.564554 22.56029 5.41672 2.965118 -19.44189 6.220175 0.9210637 -21.84954 9.943145 79.43414 30.64746 -2.373712 -0 0 21.14444 -24.58927 8.139027 16.46834 3.782713 -15.41774 -1.693911 -93.2908 22.66011 26.89801 0 0 -8.072764 1.018378 8.643847 13.82978
1734.594 97.07739 1613.446 3.397719 1.908831 87.76623 -1.170724 21.28678 2.674831 -0 28.79272 -0 -5.084754 -3.398443 0.2374451 -3.532303 -22.93513 -7.635376 -0 16.30958 -0 -1.810722 -6.465635 20.25534 -3.647561 -1.631816 8.076232 -0.8653552 9.327916 -3.006883 1.785993 22.13714 5.092166 3.19317 -20.03601 5.900938 1.314519 -21.58015 10.08523 81.10526 29.8449 -4.153482 -0 0 20.09638 -23.92455 7.027821 16.30306 3.290073 -15.41569 -1.997925 -93.14085 22.55542 27.20605 0 0 -7.58984 0.9922138 7.130522 14.34613
1742.045 98.10718 1612.355 4.007479 2.622609 88.13582 -2.011205 18.86603 3.888114 -0 40.29914 -0 -4.985017 4.273357 -0.781828 -5.473537 -19.22307 -8.262563 -0 20.34084 -0 -0.5664269 -7.381229 20.09389 -4.595367 -2.125775 7.906629 -0.7668524 10.67088 -3.58629 1.813612 21.67624 4.74173 3.239125 -20.69108 5.434657 2.002976 -21.45652 10.64369 83.12135 28.3588 -6.621334 -0 0 18.65141 -22.7685 5.795998 15.91175 2.748922 -15.95729 -2.50357 -92.62392 22.51347 26.97053 0 0 -7.655541 1.131885 5.569951 14.64675
1749.162 99.83343 1611.313 4.851615 2.652637 89.09932 -1.719247 13.87457 4.790946 -0 52.12107 -0 -5.360745 10.22145 -2.224714 -6.28903 -14.67504 -8.07834 -0 22.46886 -0 0.2961087 -8.464546 19.67183 -4.799931 -2.147906 7.102266 -0.4590323 12.16929 -4.615549 1.593451 21.33371 4.495134 3.066752 -21.26769 4.936569 2.66677 -21.46519 11.42746 85.24858 26.47003 -9.390927 -0 0 16.8529 -21.28574 4.434026 15.38945 2.191024 -17.06397 -3.201319 -91.5884 22.56378 25.99342 0 0 -8.647785 1.354032 4.192542 14.86776
1755.662 101.8951 1610.343 5.795092 2.169114 90.48099 -0.6251624 7.056078 5.258319 -0 60.71368 -0 -6.166693 13.16114 -3.760336 -6.162218 -9.567493 -7.4239 -0 22.23642 -0 0.8493735 -9.771508 18.9203 -4.407155 -1.669814 5.799878 0.1350435 13.40816 -5.932668 1.192546 21.23349 4.385142 2.667924 -21.7089 4.553892 2.971805 -21.4738 12.1556 87.21881 24.50385 -12.08467 -0 0 14.86715 -19.70382 3.035849 14.87551 1.655006 -18.44531 -4.020207 -90.06546 22.72586 24.16525 0 0 -10.6238 1.51511 3.113759 15.05827
1761.44 103.8308 1609.456 6.633289 1.595785 92.02579 0.5708447 -0.1624093 5.265108 -0 63.39428 -0 -7.008627 12.6985 -5.138532 -5.641906 -4.221355 -6.863941 -0 20.08287 -0 1.190315 -11.34535 17.84168 -3.860252 -0.9169386 4.292876 1.012236 14.00995 -7.270173 0.7698786 21.43607 4.357717 2.065379 -22.00442 4.4341 2.759795 -21.29304 12.58022 88.78136 22.72227 -14.46559 -0 0 12.94571 -18.2413 1.856627 14.41715 1.198657 -19.65148 -4.820746 -88.27866 23.09586 21.54493 0 0 -13.27629 1.473421 2.451552 15.14337
1766.564 105.2432 1608.673 7.173253 1.30277 93.51406 1.246032 -6.448392 4.794581 -0 59.81494 -0 -7.461971 9.316124 -6.228472 -5.236185 1.033679 -6.869998 -0 16.89773 -0 1.334905 -13.15653 16.58539 -3.581817 -0.1907291 2.901201 2.025455 13.78984 -8.344744 0.4899664 21.93788 4.354499 1.350585 -22.13789 4.670184 2.119236 -20.7714 12.57876 89.795 21.37749 -16.46098 -0 0 11.28208 -16.99809 1.16339 13.89518 0.8977363 -20.34883 -5.449773 -86.53727 23.85796 18.40153 0 0 -16.16151 1.143856 2.363765 15.06833
1771.187 105.9155 1608.008 7.31777 1.407165 94.81411 1.183447 -11.1882 3.939972 -0 51.838 -0 -7.398454 4.138832 -6.948946 -5.160833 5.874774 -7.624512 -0 13.55318 -0 1.260414 -15.12658 15.44718 -3.72869 0.3140651 1.85918 2.940666 12.83131 -8.968477 0.4439255 22.66127 4.369964 0.688407 -22.09494 5.250645 1.307986 -19.89198 12.1841 90.28541 20.71207 -18.10205 -0 0 9.950666 -15.92128 1.051698 13.11301 0.829253 -20.49877 -5.80795 -85.11491 25.16911 15.18298 0 0 -18.93096 0.5365105 2.968712 14.91647
1775.454 105.8312 1607.451 7.078723 1.775533 95.87741 0.6132517 -14.56367 2.966911 -0 42.26193 -0 -6.997474 -1.451952 -7.272783 -5.348155 10.0179 -9.016898 -0 10.6551 -0 0.966277 -17.17464 14.72959 -4.169438 0.5585895 1.259724 3.561789 11.42574 -9.121478 0.6251362 23.45739 4.444203 0.2570492 -21.90452 6.061054 0.6084897 -18.78979 11.54359 90.40711 20.86098 -19.44695 -0 0 8.95428 -14.88593 1.426522 11.94977 1.048484 -20.32289 -5.873109 -84.1917 27.01888 12.3911 0 0 -21.38743 -0.2396612 4.261539 14.85457
1779.463 105.1216 1606.978 6.528948 2.155299 96.70997 -0.01691691 -17.19925 2.177879 -0 33.47881 -0 -6.55304 -6.246004 -7.258665 -5.60234 13.27022 -10.7612 -0 8.512991 -0 0.4764593 -19.23068 14.56574 -4.633651 0.6107728 1.061439 3.813991 9.921444 -8.932365 0.9558172 24.14766 4.623708 0.1696547 -21.65484 6.939316 0.2121132 -17.67137 10.83998 90.34263 21.77294 -20.53652 -0 0 8.285514 -13.81457 2.116464 10.44547 1.570001 -20.12293 -5.676692 -83.85157 29.18309 10.41471 0 0 -23.41839 -1.017825 6.100514 14.98607
1783.278 103.9889 1606.564 5.74798 2.318189 97.34493 -0.3200543 -19.71575 1.741745 -0 26.76853 -0 -6.29772 -9.50573 -7.019433 -5.746714 15.57846 -12.5339 -0 7.21917 -0 -0.1889244 -21.21569 14.84471 -4.884612 0.5760914 1.135218 3.747083 8.586431 -8.591337 1.334023 24.58506 4.929408 0.4349776 -21.46873 7.743691 0.1799515 -16.7056 10.22385 90.21599 23.23371 -21.38779 -0 0 7.938562 -12.73567 2.985035 8.782401 2.355603 -20.10642 -5.271418 -84.08428 31.3012 9.409808 0 0 -24.9356 -1.633313 8.253608 15.26822
